<svg width="124" height="32" viewBox="0 0 124 32" fill="none" xmlns="http://www.w3.org/2000/svg">
<path fill-rule="evenodd" clip-rule="evenodd" d="M26.6332 12.3286C26.6238 12.3286 26.6049 12.3286 26.5954 12.3192C26.5387 12.3097 26.4914 12.3003 26.4347 12.2908C26.4158 12.2908 26.4063 12.2813 26.3874 12.2813C26.3401 12.2719 26.2929 12.2529 26.2456 12.2435C26.2267 12.234 26.2172 12.234 26.1983 12.2246C26.1416 12.2056 26.0849 12.1773 26.0281 12.1489C25.6972 12.4895 25.3663 12.8301 25.0354 13.1518C24.9503 13.237 24.8652 13.3221 24.7802 13.4073C24.4965 13.6911 24.2034 13.9655 23.9103 14.2399C23.8631 14.2872 23.8158 14.3345 23.7685 14.3818C23.4282 14.7035 23.0878 15.0158 22.7474 15.328C22.6813 15.3848 22.6151 15.4416 22.5583 15.4983C22.2558 15.7727 21.9533 16.0376 21.6602 16.2931C21.6034 16.3404 21.5562 16.3877 21.4994 16.4256C20.0813 17.6461 18.6631 18.7721 17.2733 19.7845C17.1504 19.8791 17.0275 19.9643 16.9046 20.0494C16.6682 20.2197 16.4318 20.39 16.1955 20.5509C16.082 20.636 15.9686 20.7117 15.8457 20.7969C15.6093 20.9672 15.3635 21.1281 15.1271 21.2889C15.0231 21.3646 14.9191 21.4308 14.8057 21.5065C14.5598 21.6768 14.314 21.8377 14.0682 21.9891C13.9737 22.0458 13.8791 22.1121 13.794 22.1688C13.5293 22.3392 13.2646 22.5095 12.9999 22.6703C12.9337 22.7082 12.8675 22.7555 12.8013 22.7933C12.1395 23.2002 11.4966 23.5786 10.8821 23.9287C10.8442 23.9477 10.8064 23.976 10.7591 23.995C10.1635 24.3261 9.59624 24.6384 9.04788 24.9222C6.96789 25.9914 5.24718 26.6726 4.12209 26.9565C3.98973 26.6064 3.64937 26.3604 3.25228 26.3604C2.74174 26.3604 2.31628 26.7767 2.31628 27.2971C2.31628 27.808 2.73228 28.2338 3.25228 28.2338C3.66828 28.2338 4.01809 27.9689 4.141 27.5904C5.26608 27.4485 6.95844 26.9092 9.05734 25.9819C9.63406 25.7265 10.2486 25.4426 10.8915 25.1209C10.9199 25.102 10.9577 25.0925 10.9861 25.0736C11.2508 24.9411 11.525 24.8087 11.7991 24.6668C11.8086 24.6573 11.818 24.6573 11.8275 24.6478C12.0922 24.5059 12.3664 24.364 12.65 24.222C12.7162 24.1842 12.7919 24.1464 12.858 24.1085C13.1417 23.9571 13.4159 23.8057 13.7089 23.6449C13.4253 23.8625 13.1417 24.0707 12.858 24.2694C12.7919 24.3167 12.7162 24.3734 12.65 24.4207C12.3759 24.6194 12.1017 24.8181 11.837 25.0074C11.818 25.0168 11.7991 25.0358 11.7802 25.0452C11.5155 25.225 11.2602 25.4048 11.005 25.5751C10.9577 25.6035 10.9199 25.6318 10.8726 25.6697C10.6079 25.8495 10.3337 26.0292 10.0784 26.1901C9.73806 26.4077 9.40715 26.6159 9.09515 26.8051C9.24643 27.4485 9.82315 27.9311 10.5039 27.9311H17.1787C17.9729 27.9311 18.6253 27.2782 18.6253 26.4834V18.9045H26.1983C26.9925 18.9045 27.6449 18.2517 27.6449 17.4569V12.1394C27.399 12.2624 27.1249 12.3381 26.8318 12.3381C26.775 12.3381 26.6994 12.3381 26.6332 12.3286ZM3.26173 27.7513C3.01592 27.7513 2.81737 27.5526 2.81737 27.3066C2.81737 27.0606 3.01592 26.8619 3.26173 26.8619C3.50755 26.8619 3.70609 27.0606 3.70609 27.3066C3.70609 27.5526 3.50755 27.7513 3.26173 27.7513Z" fill="white"/>
<path fill-rule="evenodd" clip-rule="evenodd" d="M26.8413 11.4111C27.314 11.4111 27.6922 11.0327 27.6922 10.5596C27.6922 10.0865 27.314 9.70801 26.8413 9.70801C26.3685 9.70801 25.9904 10.0865 25.9904 10.5596C25.9904 11.0232 26.3685 11.4111 26.8413 11.4111Z" fill="white"/>
<path fill-rule="evenodd" clip-rule="evenodd" d="M0.850904 16.8323C0.37818 16.8323 0 17.2107 0 17.6838C0 18.1569 0.37818 18.5354 0.850904 18.5354C1.32363 18.5354 1.70181 18.1569 1.70181 17.6838C1.70181 17.2202 1.32363 16.8323 0.850904 16.8323Z" fill="white"/>
<path fill-rule="evenodd" clip-rule="evenodd" d="M24.4304 0C24.0144 0 23.6646 0.264929 23.5416 0.643398C22.4166 0.785325 20.7242 1.32464 18.6253 2.25189C18.0486 2.50736 17.434 2.79121 16.7911 3.11291C16.7628 3.13184 16.725 3.1413 16.6966 3.16022C16.4319 3.29269 16.1577 3.42515 15.8741 3.57654C15.8646 3.57654 15.8551 3.586 15.8457 3.586C15.581 3.72793 15.3068 3.86985 15.0232 4.01178C14.957 4.04963 14.8813 4.08747 14.8152 4.12532C14.5315 4.27671 14.2573 4.42809 13.9643 4.58894C14.2479 4.37132 14.5315 4.16317 14.8152 3.96447C14.8813 3.91716 14.957 3.86039 15.0232 3.81308C15.2973 3.61439 15.5715 3.41569 15.8362 3.23592C15.8551 3.22645 15.8741 3.20753 15.893 3.19807C16.1577 3.0183 16.413 2.83852 16.6682 2.66821C16.7155 2.63983 16.7533 2.61144 16.8006 2.58306C17.0748 2.40328 17.3395 2.22351 17.5948 2.06266C17.9351 1.84504 18.266 1.63688 18.578 1.44765C18.4268 0.804248 17.85 0.321699 17.1693 0.321699H10.4945C9.70028 0.321699 9.04792 0.974559 9.04792 1.76935V9.3482H1.49378C0.699601 9.3482 0.0472412 10.0011 0.0472412 10.7958V16.1133C0.293058 15.9903 0.567238 15.9146 0.860327 15.9146C0.926509 15.9146 1.00214 15.9146 1.06833 15.9241C1.07778 15.9241 1.08724 15.9241 1.10614 15.9336C1.16287 15.943 1.21014 15.9525 1.26687 15.962C1.28578 15.962 1.29523 15.9714 1.31414 15.9714C1.36142 15.9809 1.40869 15.9998 1.45596 16.0093C1.47487 16.0187 1.48432 16.0187 1.50323 16.0282C1.55996 16.0471 1.61669 16.0755 1.67341 16.1039C2.00432 15.7633 2.33523 15.4226 2.66614 15.0915C2.75123 15.0063 2.83632 14.9212 2.92141 14.836C3.2145 14.5522 3.49813 14.2683 3.79122 13.9939C3.83849 13.9466 3.88576 13.8993 3.93304 13.852C4.2734 13.5303 4.61376 13.2181 4.95412 12.9058C5.0203 12.849 5.07703 12.7923 5.14321 12.7355C5.44576 12.4706 5.7483 12.1962 6.04139 11.9407C6.09811 11.8934 6.14539 11.8461 6.20211 11.8083C7.62029 10.5877 9.03846 9.46174 10.4283 8.44934C10.5512 8.35472 10.6741 8.26956 10.797 8.18441C11.0334 8.01409 11.2697 7.84378 11.5061 7.68293C11.6195 7.59778 11.7424 7.52208 11.8559 7.43693C12.0923 7.26662 12.3381 7.10577 12.5744 6.94492C12.6784 6.86922 12.7919 6.80299 12.8959 6.7273C13.1417 6.55699 13.3875 6.4056 13.6333 6.24475C13.7279 6.18798 13.8224 6.12175 13.9075 6.06498C14.1722 5.89466 14.437 5.72435 14.7017 5.5635C14.7679 5.52566 14.8341 5.47835 14.9002 5.4405C15.5621 5.03365 16.205 4.65518 16.8195 4.30509C16.8573 4.28617 16.8951 4.25778 16.9424 4.23886C17.538 3.9077 18.1053 3.59546 18.6537 3.31161C20.7337 2.24243 22.4544 1.56119 23.5795 1.27734C23.7118 1.62742 24.0522 1.87342 24.4493 1.87342C24.9598 1.87342 25.3853 1.45711 25.3853 0.936712C25.3664 0.416317 24.9504 0 24.4304 0ZM24.4304 1.38141C24.1846 1.38141 23.986 1.18272 23.986 0.936712C23.986 0.690707 24.1846 0.492011 24.4304 0.492011C24.6762 0.492011 24.8747 0.690707 24.8747 0.936712C24.8747 1.18272 24.6762 1.38141 24.4304 1.38141Z" fill="white"/>
<path fill-rule="evenodd" clip-rule="evenodd" d="M27.1061 8.73314C27.0871 8.72368 27.0588 8.71422 27.0399 8.70476C26.9926 8.68583 26.9548 8.67637 26.9075 8.66691C26.8602 8.65745 26.8224 8.64798 26.7751 8.63852C26.7373 8.62906 26.6995 8.62906 26.6617 8.6196C26.6239 8.6196 26.5955 8.61014 26.5577 8.61014C26.5293 8.61014 26.4915 8.61014 26.4631 8.61014C26.4348 8.61014 26.397 8.61014 26.3686 8.61014C26.3119 8.61014 26.2457 8.6196 26.189 8.62906C26.1701 8.62906 26.1511 8.63852 26.1322 8.63852C26.0755 8.64798 26.0188 8.65745 25.9621 8.67637C25.9526 8.67637 25.9431 8.67637 25.9431 8.68583C25.669 8.76153 25.4042 8.91291 25.1868 9.12107C25.1773 9.13053 25.1679 9.14 25.1679 9.14C25.1301 9.17784 25.0922 9.21569 25.0639 9.25354C25.045 9.27246 25.0355 9.29138 25.0166 9.31031C25.0166 9.31977 25.0072 9.31977 25.0072 9.32923H24.5817H23.0501C29.8289 2.80063 26.1795 2.03423 18.6443 5.9987C18.6254 6.00816 18.6159 6.01762 18.597 6.02708C18.3512 6.15955 18.1054 6.29201 17.8596 6.42448C17.8312 6.4434 17.8028 6.45286 17.7745 6.47178C17.5097 6.61371 17.245 6.7651 16.9708 6.92595C16.9236 6.95433 16.8763 6.98272 16.829 7.0111C16.6021 7.14357 16.3658 7.27603 16.1388 7.41796C16.0821 7.45581 16.0254 7.48419 15.9687 7.52204C15.7039 7.68289 15.4298 7.8532 15.1556 8.02351C15.0894 8.06136 15.0327 8.0992 14.9665 8.14651C14.7396 8.28844 14.5127 8.43036 14.2858 8.58175C14.2101 8.62906 14.1345 8.67637 14.0589 8.72368C13.7847 8.90345 13.5105 9.08322 13.2269 9.27246C13.1607 9.31977 13.085 9.36708 13.0189 9.41439C12.792 9.56577 12.5556 9.72662 12.3287 9.88747C12.2436 9.94424 12.1585 10.001 12.0734 10.0672C11.7898 10.2659 11.5061 10.4646 11.2131 10.6728C11.1469 10.7201 11.0807 10.7674 11.0051 10.8242C10.7687 10.9945 10.5229 11.1743 10.2865 11.354C10.2014 11.4203 10.1069 11.4865 10.0218 11.5527C9.7287 11.7704 9.42616 11.9974 9.13307 12.2245C9.07634 12.2718 9.01961 12.3097 8.96289 12.357C8.70761 12.5557 8.44289 12.7544 8.18762 12.9625C8.10253 13.0288 8.01744 13.095 7.92289 13.1707C7.62035 13.4167 7.30835 13.6627 6.99635 13.9182C6.95853 13.956 6.91126 13.9844 6.87344 14.0223C6.59926 14.2493 6.31563 14.4859 6.04145 14.713C5.95636 14.7887 5.87127 14.8549 5.78618 14.9306C5.47418 15.1955 5.15273 15.4699 4.84073 15.7443C4.82182 15.7632 4.79346 15.7821 4.77455 15.8011C4.472 16.066 4.17891 16.3309 3.87637 16.5958C3.79128 16.6715 3.71564 16.7472 3.63055 16.8229C3.3091 17.1162 2.98765 17.4096 2.6662 17.7123C2.6662 17.788 2.6662 17.8543 2.65674 17.93C2.64729 17.9867 2.63783 18.0435 2.62838 18.0908C2.62838 18.1097 2.62838 18.1192 2.61892 18.1381C2.60947 18.1854 2.59056 18.2327 2.58111 18.28C2.57165 18.299 2.57165 18.3179 2.5622 18.3368C2.55274 18.3747 2.53383 18.403 2.51492 18.4409C2.50547 18.4693 2.48656 18.4977 2.47711 18.526C2.46765 18.545 2.4582 18.5639 2.44874 18.5828C2.42983 18.6207 2.40147 18.6585 2.38256 18.6964L2.37311 18.7058C2.00438 19.2546 1.34257 19.5763 0.642935 19.4817C0.576754 19.4722 0.501118 19.4628 0.434937 19.4438C0.501118 19.4817 0.567299 19.5101 0.633481 19.5384C0.65239 19.5479 0.671299 19.5574 0.699662 19.5668C0.746935 19.5858 0.803662 19.6047 0.850934 19.6141C0.879298 19.6236 0.907661 19.6236 0.936024 19.6331C0.983297 19.6425 1.04002 19.652 1.0873 19.6615C1.11566 19.6615 1.14402 19.6709 1.17239 19.6709C1.2102 19.6709 1.25748 19.6709 1.2953 19.6709C1.32366 19.6709 1.34257 19.6709 1.37093 19.6709C1.43711 19.6709 1.49384 19.6615 1.56002 19.652C1.57893 19.652 1.59784 19.6425 1.60729 19.6425C1.66402 19.6331 1.72075 19.6236 1.77747 19.6047C1.78693 19.6047 1.79638 19.6047 1.79638 19.5952C1.9382 19.5574 2.07056 19.5006 2.20293 19.4249C2.32583 19.3492 2.43929 19.2641 2.54329 19.1694C2.55274 19.16 2.57165 19.1411 2.58111 19.1316C2.60947 19.1032 2.63783 19.0654 2.67565 19.0275C2.69456 19.0086 2.71347 18.9802 2.73238 18.9613L2.74183 18.9518H3.16728H4.69891C-2.07996 25.4804 1.56948 26.2468 9.1047 22.2824C9.15198 22.254 9.2087 22.2256 9.25598 22.1972C9.43561 22.1026 9.61525 22.008 9.80434 21.9039C9.87997 21.866 9.95561 21.8282 10.0218 21.7809C10.2582 21.6484 10.504 21.5065 10.7498 21.374C10.8254 21.3267 10.9011 21.2889 10.9767 21.2416C11.1752 21.128 11.3738 21.0145 11.5723 20.8915C11.648 20.8442 11.7236 20.7969 11.8087 20.7496C12.064 20.5982 12.3287 20.4373 12.584 20.2765C12.6596 20.2292 12.7352 20.1818 12.8109 20.1345C13.0189 20.0021 13.2363 19.8696 13.4443 19.7277C13.5294 19.6709 13.6145 19.6236 13.6996 19.5668C13.9738 19.3871 14.2385 19.2073 14.5221 19.0275C14.5978 18.9802 14.6734 18.9234 14.749 18.8761C14.9665 18.7247 15.1934 18.5734 15.4203 18.422C15.5054 18.3557 15.5999 18.299 15.685 18.2327C15.9687 18.034 16.2523 17.8353 16.5359 17.6272C16.6116 17.5704 16.6777 17.5231 16.7534 17.4663C16.9897 17.296 17.2167 17.1257 17.453 16.9554C17.5476 16.8892 17.6421 16.8135 17.7367 16.7472C18.0297 16.5296 18.3228 16.312 18.6159 16.0849C18.6821 16.0376 18.7483 15.9808 18.8145 15.9335C19.0603 15.7443 19.3061 15.5456 19.5614 15.3564C19.6559 15.2807 19.7505 15.205 19.845 15.1293C20.1475 14.8927 20.4501 14.6467 20.7526 14.4007C20.7999 14.3629 20.8566 14.3156 20.9039 14.2777C21.1686 14.0601 21.4334 13.833 21.7075 13.6154C21.8021 13.5397 21.8872 13.464 21.9817 13.3789C22.2937 13.1139 22.6057 12.849 22.9177 12.5746C22.9461 12.5462 22.9839 12.5178 23.0123 12.4895C23.3053 12.234 23.589 11.9785 23.8821 11.7136C23.9672 11.6379 24.0523 11.5622 24.1373 11.4865C24.4588 11.1932 24.7802 10.8999 25.1017 10.6066C25.1017 10.5309 25.1017 10.4646 25.1112 10.3889C25.1206 10.3322 25.1301 10.2849 25.1395 10.2281C25.1395 10.2092 25.149 10.1997 25.149 10.1808C25.1584 10.1335 25.1773 10.0767 25.1962 10.0294C25.2057 10.0105 25.2057 10.001 25.2152 9.98209C25.2341 9.94424 25.2435 9.9064 25.2624 9.86855C25.2719 9.84016 25.2813 9.82124 25.2908 9.79286C25.3002 9.77393 25.3192 9.74555 25.3286 9.72662C25.3475 9.68878 25.3664 9.65093 25.3948 9.62254C25.3948 9.61308 25.4042 9.61308 25.4042 9.60362C25.8108 9.00753 26.5766 8.67637 27.333 8.87507C27.229 8.78991 27.1722 8.76153 27.1061 8.73314ZM22.4734 9.32923H18.6348V6.85025C25.1679 3.40618 28.2122 3.7468 22.4734 9.32923ZM5.21891 18.914H9.05743V21.393C2.52438 24.837 -0.519967 24.4964 5.21891 18.914Z" fill="white"/>
<path d="M29.8459 2.18237V6.22684H35.7916V24.8314H41.0673V6.22684H47.0409V2.18237H29.8459Z" fill="white"/>
<path d="M64.7942 4.24645C63.2031 2.8797 61.0816 2.18237 58.4019 2.18237H49.1903V24.8314H54.466V17.0772H58.4019C61.0816 17.0772 63.231 16.4077 64.7942 15.041C66.3573 13.6742 67.1668 11.8891 67.1668 9.65767C67.1668 7.42624 66.3573 5.6132 64.7942 4.24645ZM60.9979 12.0843C60.4117 12.7259 59.5464 13.0327 58.4019 13.0327H54.466V6.22684H58.4019C59.5464 6.22684 60.4117 6.56156 60.9979 7.20309C61.5841 7.84463 61.8911 8.68142 61.8911 9.68556C61.8911 10.6618 61.5841 11.4707 60.9979 12.0843Z" fill="white"/>
<path d="M85.8691 4.58116C84.1385 2.74023 81.8774 1.84766 79.0861 1.84766C76.3784 1.84766 74.1732 2.76812 72.4705 4.58116C70.7677 6.3942 69.9303 8.70931 69.9303 11.4707V15.5431C69.9303 15.7662 69.9303 15.9894 69.9582 16.1846C69.9582 16.2125 69.9582 16.2125 69.9582 16.2404V16.2683V16.2962C70.042 17.6071 70.3211 18.8065 70.7956 19.8944C71.5493 19.476 72.8892 18.5834 73.7824 16.854C73.7266 16.4356 73.6987 16.0172 73.6987 15.5431V11.4428C73.6987 9.5461 74.1732 8.01199 75.1502 6.7847C76.1272 5.58531 77.4391 4.97166 79.0861 4.97166C80.8167 4.97166 82.1845 5.58531 83.1894 6.7847C84.0826 7.84463 84.5851 9.18349 84.6967 10.7734C85.7854 9.82502 86.9578 9.07192 88.1301 8.62563C87.7393 7.09152 86.9857 5.75266 85.8691 4.58116Z" fill="white"/>
<path d="M84.7247 16.0172C84.6409 17.7187 84.1385 19.1412 83.2452 20.2569C82.3241 21.3726 81.1238 21.9584 79.5885 22.07C79.0023 22.9904 78.3882 23.9946 77.83 25.1103C78.2487 25.1661 78.6953 25.194 79.1419 25.194C81.9054 25.194 84.1664 24.2735 85.8971 22.4605C87.6277 20.6474 88.521 18.3602 88.521 15.5709V13.3953C87.4602 13.9252 86.1483 14.762 84.7247 16.0172Z" fill="white"/>
<path d="M71.2703 20.8147C71.6052 21.3726 72.0239 21.9304 72.4706 22.4325C73.7267 23.7713 75.234 24.6081 77.0484 24.9707C77.0484 24.9707 77.0484 24.9707 77.0763 24.9707C77.1043 24.9707 77.0763 24.9707 77.1043 24.9707C76.4901 24.1061 74.4804 21.6515 71.2703 20.8147Z" fill="white"/>
<path d="M104.767 9.29497C103.79 8.23504 102.422 7.70508 100.664 7.70508C99.6028 7.70508 98.6817 7.95612 97.8442 8.4303C97.0068 8.90447 96.309 9.5739 95.7786 10.4386L95.5553 8.0119H92.094V24.8592H95.8624V12.6421C96.2252 12.0843 96.7277 11.6101 97.286 11.3033C97.8722 10.9685 98.5142 10.8012 99.2679 10.8012C100.329 10.8012 101.138 11.0801 101.668 11.6101C102.199 12.14 102.45 13.0326 102.45 14.3157V24.8592H106.246V14.2878C106.246 12.0006 105.744 10.3549 104.767 9.29497Z" fill="white"/>
<path d="M123.999 17.5234V15.2919C123.999 12.9768 123.385 11.1359 122.185 9.76915C120.985 8.4024 119.226 7.70508 116.965 7.70508C114.844 7.70508 113.085 8.48608 111.689 10.1039C110.294 11.7217 109.568 13.7578 109.568 16.2124V16.8261C109.568 19.2806 110.266 21.2889 111.689 22.8509C113.113 24.4129 115.011 25.1939 117.412 25.1939C118.78 25.1939 120.008 24.9987 121.069 24.6082C122.129 24.2177 122.967 23.7435 123.581 23.1856L122.353 20.7032C121.683 21.1773 120.985 21.54 120.259 21.791C119.533 22.042 118.668 22.1536 117.635 22.1536C116.351 22.1536 115.374 21.7352 114.648 20.8705C113.923 20.0337 113.532 18.918 113.476 17.6071L113.504 17.5234H123.999ZM114.648 11.8332C115.262 11.0801 116.016 10.7175 116.965 10.7175C118.082 10.7175 118.891 11.0522 119.45 11.7217C119.98 12.3911 120.259 13.2558 120.259 14.3436V14.7341H113.588L113.56 14.6504C113.671 13.5068 114.062 12.5863 114.648 11.8332Z" fill="white"/>
<path d="M89.7492 12.2794C89.3305 12.391 89.3863 12.391 88.4931 12.8373C87.4603 13.3672 86.1483 14.1482 84.7247 15.3476C82.9382 16.8538 80.9563 19.0016 79.0303 22.0698C78.4999 22.8787 77.9975 23.7713 77.495 24.7196C76.8251 23.7713 74.6478 21.0657 71.0748 20.3125C71.8285 19.922 73.0009 19.0853 73.95 17.579C74.0337 17.4675 74.0895 17.328 74.1733 17.1885C74.7874 17.7185 76.518 19.3084 77.188 21.1493L77.3554 21.6514L77.6067 21.1772C77.6346 21.0936 80.7051 15.0408 84.7526 11.3868C85.8692 10.3827 87.0695 9.54589 88.2698 9.09961C88.6885 8.93225 89.1072 8.82068 89.5259 8.76489C88.9955 9.68536 89.1072 10.6337 89.3026 11.3031C89.4422 11.8052 89.6934 12.1678 89.7492 12.2794Z" fill="white"/>
<path d="M75.0107 31.9163V29.8801C75.0107 29.5454 74.9269 29.2665 74.7874 29.0712C74.6199 28.8481 74.3686 28.7086 74.0337 28.7086C73.6987 28.7086 73.4475 28.8202 73.28 29.0712C73.1404 29.2665 73.0567 29.5454 73.0567 29.8801V31.9163H72.6101V29.8801C72.6101 29.5454 72.5263 29.2665 72.3868 29.0712C72.2193 28.8481 71.9681 28.7086 71.6331 28.7086C71.2981 28.7086 71.0469 28.8202 70.8794 29.0712C70.7398 29.2665 70.6561 29.5454 70.6561 29.8801V31.9163H70.2095V28.4018H70.6561V28.8202C70.8794 28.4855 71.1865 28.3181 71.6331 28.3181C72.1635 28.3181 72.5543 28.5413 72.8055 28.9875C73.0846 28.5413 73.4754 28.3181 74.0058 28.3181C74.4524 28.3181 74.7874 28.4576 75.0386 28.7644C75.2898 29.0433 75.4015 29.4059 75.4015 29.8522V31.9442H75.0107V31.9163Z" fill="white"/>
<path d="M79.8118 30.2984H76.6017C76.6297 30.6332 76.7692 30.94 77.0484 31.191C77.3275 31.4421 77.6346 31.5815 77.9695 31.5815C78.2487 31.5815 78.4999 31.4978 78.7232 31.3584C78.9744 31.2189 79.1419 30.9958 79.2256 30.7447H79.7002C79.5606 31.1073 79.3373 31.4142 79.0302 31.6373C78.7232 31.8605 78.3603 31.972 77.9695 31.972C77.4671 31.972 77.0204 31.8047 76.6576 31.4142C76.2947 31.0516 76.1272 30.6332 76.1272 30.1032C76.1272 29.6011 76.2947 29.1548 76.6576 28.7922C77.0204 28.4296 77.4391 28.2344 77.9416 28.2344C78.444 28.2344 78.8907 28.4296 79.2536 28.7922C79.6164 29.1548 79.7839 29.6011 79.7839 30.1032L79.8118 30.2984ZM79.3652 29.9079C79.3094 29.5732 79.1419 29.2664 78.8907 29.0433C78.6395 28.8201 78.3324 28.7086 77.9695 28.7086C77.6346 28.7086 77.3275 28.8201 77.0484 29.0433C76.7971 29.2664 76.6297 29.5453 76.5738 29.9079H79.3652Z" fill="white"/>
<path d="M83.6082 31.9164V31.3027C83.3011 31.7769 82.8266 32 82.2404 32C81.7101 32 81.2634 31.8327 80.9006 31.4701C80.5377 31.1075 80.3423 30.6612 80.3423 30.1591C80.3423 29.6291 80.5377 29.1828 80.9006 28.8481C81.2634 28.4855 81.7101 28.3182 82.2404 28.3182C82.8266 28.3182 83.3011 28.5413 83.6082 29.0155V27.1746H84.0548V31.9164H83.6082ZM83.2453 29.1271C82.9662 28.8481 82.6312 28.7087 82.2404 28.7087C81.8217 28.7087 81.4867 28.8481 81.2076 29.1271C80.9285 29.406 80.7889 29.7407 80.7889 30.1591C80.7889 30.5775 80.9285 30.9122 81.2076 31.1911C81.4867 31.4701 81.8217 31.6095 82.2404 31.6095C82.6312 31.6095 82.9662 31.4701 83.2453 31.1911C83.5245 30.9122 83.664 30.5775 83.664 30.187C83.6361 29.7407 83.5245 29.406 83.2453 29.1271Z" fill="white"/>
<path d="M84.92 27.9556V27.1467H85.3667V27.9556H84.92ZM84.92 31.9164V28.4019H85.3667V31.9164H84.92Z" fill="white"/>
<path d="M89.6935 30.8567C89.3027 31.6098 88.7165 31.9724 87.9349 31.9724C87.4045 31.9724 86.9579 31.805 86.595 31.4424C86.2321 31.0798 86.0367 30.6335 86.0367 30.1315C86.0367 29.6015 86.2321 29.1831 86.595 28.8205C86.9579 28.4579 87.4045 28.2905 87.9349 28.2905C88.3257 28.2905 88.6886 28.4021 88.9956 28.5974C89.3306 28.8205 89.5539 29.0994 89.6935 29.4341H89.191C88.9398 28.9321 88.5211 28.681 87.9349 28.681C87.5162 28.681 87.1812 28.8205 86.9021 29.0994C86.6229 29.3783 86.4834 29.7131 86.4834 30.1315C86.4834 30.5499 86.6229 30.8846 86.9021 31.1635C87.1812 31.4424 87.5162 31.5819 87.9349 31.5819C88.5211 31.5819 88.9398 31.3309 89.191 30.8567H89.6935Z" fill="white"/>
<path d="M93.5176 31.9163V31.3027C93.2106 31.7768 92.736 32 92.1498 32C91.6195 32 91.1729 31.8326 90.81 31.47C90.4471 31.1074 90.2517 30.6611 90.2517 30.159C90.2517 29.6291 90.4471 29.1828 90.81 28.8481C91.1729 28.4855 91.6195 28.3181 92.1498 28.3181C92.764 28.3181 93.2106 28.5413 93.5176 29.0154V28.4018H93.9643V31.9163H93.5176ZM93.1268 29.127C92.8477 28.8481 92.5127 28.7086 92.1219 28.7086C91.7032 28.7086 91.3683 28.8481 91.0891 29.127C90.81 29.4059 90.6704 29.7407 90.6704 30.159C90.6704 30.5774 90.81 30.9122 91.0891 31.1911C91.3683 31.47 91.7032 31.6095 92.1219 31.6095C92.5127 31.6095 92.8477 31.47 93.1268 31.1911C93.406 30.9122 93.5455 30.5774 93.5455 30.1869C93.5455 29.7407 93.406 29.4059 93.1268 29.127Z" fill="white"/>
<path d="M94.7738 31.9164V27.1467H95.2204V31.9164H94.7738Z" fill="white"/>
<path d="M98.6816 32.0003C98.3746 32.0003 98.0955 31.8887 97.9001 31.6935C97.7047 31.4982 97.593 31.2193 97.593 30.9125V30.8846H98.0396C98.0396 31.3587 98.2629 31.6098 98.6816 31.6098C99.1283 31.6098 99.3516 31.3866 99.3516 30.9682C99.3516 30.773 99.2678 30.6056 99.1004 30.4662C99.0445 30.4104 98.9329 30.3825 98.8491 30.3267L98.5421 30.2151C98.4025 30.1593 98.3188 30.1315 98.235 30.0757C98.1234 30.0199 98.0396 29.9641 97.9838 29.9083C97.8163 29.741 97.7326 29.5457 97.7326 29.2668C97.7326 28.9878 97.8163 28.7368 98.0117 28.5695C98.2071 28.3742 98.4304 28.2905 98.7375 28.2905C99.0166 28.2905 99.2399 28.3742 99.4074 28.5695C99.6028 28.7647 99.6866 28.9878 99.6866 29.2389H99.212C99.1841 28.8763 99.0166 28.681 98.6816 28.681C98.3188 28.681 98.1513 28.8484 98.1513 29.211C98.1513 29.3784 98.235 29.5178 98.4025 29.6294C98.4583 29.6573 98.5421 29.7131 98.6537 29.741L98.7375 29.7689C98.7654 29.7689 98.7933 29.7967 98.8212 29.7967L98.9608 29.8525C99.0724 29.9083 99.1841 29.9362 99.2678 29.992C99.3795 30.0478 99.4632 30.1036 99.5191 30.1872C99.6865 30.3546 99.7703 30.6056 99.7703 30.8846C99.7982 31.6377 99.4074 32.0003 98.6816 32.0003Z" fill="white"/>
<path d="M103.343 31.4421C102.98 31.8047 102.534 32 102.031 32C101.529 32 101.11 31.8326 100.747 31.47C100.384 31.1074 100.189 30.689 100.189 30.1869C100.189 29.6849 100.356 29.2386 100.719 28.876C101.082 28.5134 101.501 28.3181 102.031 28.3181C102.534 28.3181 102.952 28.5134 103.343 28.876C103.706 29.2386 103.902 29.6849 103.902 30.1869C103.902 30.6332 103.706 31.0795 103.343 31.4421ZM103.036 29.127C102.757 28.8481 102.422 28.7086 102.059 28.7086C101.668 28.7086 101.333 28.8481 101.054 29.1549C100.803 29.4338 100.664 29.7685 100.664 30.1869C100.664 30.5774 100.803 30.9122 101.082 31.1911C101.361 31.47 101.696 31.6095 102.059 31.6095C102.45 31.6095 102.785 31.47 103.064 31.1632C103.315 30.8843 103.455 30.5495 103.455 30.1312C103.455 29.7407 103.315 29.4059 103.036 29.127Z" fill="white"/>
<path d="M104.572 31.9164V27.1467H105.018V31.9164H104.572Z" fill="white"/>
<path d="M108.507 31.9164V31.3585C108.396 31.5538 108.256 31.7211 108.033 31.8327C107.837 31.9443 107.614 32 107.363 32C106.832 32 106.442 31.8327 106.163 31.4701C106.051 31.3306 105.967 31.1354 105.911 30.9401C105.883 30.7728 105.855 30.5775 105.855 30.3544V28.4019H106.302V30.3265C106.302 30.717 106.386 31.0238 106.525 31.219C106.693 31.4701 106.972 31.5816 107.363 31.5816C107.67 31.5816 107.921 31.498 108.117 31.3027C108.256 31.1633 108.368 30.9959 108.424 30.8285C108.479 30.6891 108.479 30.4938 108.479 30.2707V28.4019H108.926V31.9164H108.507Z" fill="white"/>
<path d="M110.657 28.7922V31.9162H110.21V28.7922H109.456V28.3738H110.21V27.1187H110.657V28.3738H111.494V28.7922H110.657Z" fill="white"/>
<path d="M111.969 27.9556V27.1467H112.415V27.9556H111.969ZM111.969 31.9164V28.4019H112.415V31.9164H111.969Z" fill="white"/>
<path d="M116.267 31.4421C115.905 31.8047 115.458 32 114.955 32C114.453 32 114.034 31.8326 113.671 31.47C113.309 31.1074 113.113 30.689 113.113 30.1869C113.113 29.6849 113.281 29.2386 113.644 28.876C114.006 28.5134 114.425 28.3181 114.955 28.3181C115.458 28.3181 115.877 28.5134 116.267 28.876C116.63 29.2386 116.826 29.6849 116.826 30.1869C116.798 30.6332 116.63 31.0795 116.267 31.4421ZM115.96 29.127C115.681 28.8481 115.346 28.7086 114.983 28.7086C114.593 28.7086 114.258 28.8481 113.978 29.1549C113.727 29.4338 113.588 29.7685 113.588 30.1869C113.588 30.5774 113.727 30.9122 114.006 31.1911C114.286 31.47 114.621 31.6095 114.983 31.6095C115.374 31.6095 115.709 31.47 115.988 31.1632C116.24 30.8843 116.379 30.5495 116.379 30.1312C116.351 29.7407 116.212 29.4059 115.96 29.127Z" fill="white"/>
<path d="M120.147 31.9163V29.9638C120.147 29.7685 120.12 29.6012 120.064 29.4338C120.008 29.2386 119.924 29.0991 119.812 28.9875C119.589 28.7923 119.338 28.6807 119.059 28.6807C118.752 28.6807 118.501 28.7923 118.277 28.9875C118.166 29.0991 118.082 29.2386 118.026 29.4338C117.97 29.6012 117.942 29.7685 117.942 29.9359V31.9163H117.496V28.4018H117.942V28.8481C118.166 28.4855 118.528 28.3181 119.031 28.3181C119.533 28.3181 119.896 28.4855 120.175 28.7923C120.427 29.0991 120.566 29.4896 120.566 29.9917V31.9163H120.147Z" fill="white"/>
<path d="M122.241 32.0003C121.934 32.0003 121.655 31.8887 121.459 31.6935C121.264 31.4982 121.152 31.2193 121.152 30.9125V30.8846H121.599C121.599 31.3587 121.822 31.6098 122.241 31.6098C122.688 31.6098 122.911 31.3866 122.911 30.9682C122.911 30.773 122.827 30.6056 122.66 30.4662C122.604 30.4104 122.492 30.3825 122.408 30.3267L122.101 30.2151C121.962 30.1593 121.878 30.1315 121.794 30.0757C121.683 30.0199 121.599 29.9641 121.543 29.9083C121.376 29.741 121.292 29.5457 121.292 29.2668C121.292 28.9878 121.376 28.7368 121.571 28.5695C121.766 28.3742 121.99 28.2905 122.297 28.2905C122.576 28.2905 122.799 28.3742 122.967 28.5695C123.162 28.7647 123.246 28.9878 123.246 29.2389H122.799C122.771 28.8763 122.604 28.681 122.269 28.681C121.906 28.681 121.739 28.8484 121.739 29.211C121.739 29.3784 121.822 29.5178 121.99 29.6294C122.046 29.6573 122.129 29.7131 122.241 29.741L122.325 29.7689C122.353 29.7689 122.381 29.7967 122.408 29.7967L122.548 29.8525C122.66 29.9083 122.771 29.9362 122.855 29.992C122.967 30.0478 123.05 30.1036 123.106 30.1872C123.274 30.3546 123.358 30.6056 123.358 30.8846C123.358 31.6377 122.967 32.0003 122.241 32.0003Z" fill="white"/>
</svg>
